<?xml version="1.0" standalone="no"?>
<!DOCTYPE svg PUBLIC "-//W3C//DTD SVG 20010904//EN"
 "http://www.w3.org/TR/2001/REC-SVG-20010904/DTD/svg10.dtd">
<svg version="1.0" xmlns="http://www.w3.org/2000/svg"
 width="376.000000pt" height="376.000000pt" viewBox="0 0 376.000000 376.000000"
 preserveAspectRatio="xMidYMid meet">
<metadata>
Created by potrace 1.14, written by Peter Selinger 2001-2017
</metadata>
<g transform="translate(0.000000,376.000000) scale(0.100000,-0.100000)"
fill="#000000" stroke="none">
<path d="M814 2437 c-16 -18 -58 -67 -93 -110 -63 -76 -73 -82 -77 -51 -6 38
-13 43 -61 42 -51 -1 -60 -7 -94 -71 l-20 -38 31 16 30 16 1 -38 c1 -21 3 -47
3 -58 2 -34 -10 -53 -89 -139 -6 -6 -28 -33 -50 -61 -22 -27 -47 -56 -55 -65
-8 -9 -35 -40 -60 -69 -25 -29 -64 -74 -86 -100 -78 -87 -144 -166 -144 -173
0 -3 45 -6 100 -5 74 2 103 6 113 17 8 8 47 55 88 105 41 49 86 103 101 120
14 16 36 41 48 55 23 28 88 104 137 160 18 20 30 40 26 44 -3 3 1 6 10 6 8 0
17 4 19 9 2 5 36 48 76 95 57 66 77 83 85 73 11 -11 85 -98 132 -154 l19 -22
59 31 c32 18 62 38 64 46 3 7 -10 30 -29 50 -19 20 -59 66 -88 102 -53 65
-112 136 -147 177 l-19 22 -30 -32z"/>
<path d="M1410 2414 c-25 -31 -53 -66 -63 -77 -11 -12 -33 -40 -50 -61 -18
-21 -45 -52 -61 -67 -16 -16 -26 -29 -21 -29 4 0 -11 -15 -33 -32 -23 -18 -44
-40 -47 -48 -3 -9 -23 -35 -45 -59 -22 -24 -57 -64 -78 -89 -20 -25 -49 -59
-64 -76 -15 -16 -25 -33 -22 -38 3 -5 1 -7 -4 -6 -10 3 -28 -17 -146 -156 -22
-27 -58 -67 -78 -90 -21 -23 -38 -44 -38 -47 0 -3 90 -6 201 -7 110 0 199 1
197 3 -2 3 -37 11 -78 20 -41 9 -75 17 -77 19 -4 4 50 69 180 220 11 11 35 41
55 65 21 25 44 52 52 60 8 9 33 38 55 66 22 27 47 56 55 65 8 9 33 37 55 63
22 26 54 63 71 83 l31 35 50 -58 c38 -45 140 -165 170 -202 2 -3 296 -5 653
-6 357 0 646 2 644 4 -6 6 -9 6 -229 16 -93 3 -190 8 -215 10 -25 2 -112 6
-195 10 -82 3 -172 8 -200 10 -27 2 -106 7 -175 10 l-125 6 -35 38 c-33 36
-57 65 -171 197 -24 28 -62 72 -84 99 -22 27 -51 62 -65 77 l-25 27 -45 -55z"/>
<path d="M2920 2462 c-8 -2 -28 -10 -45 -17 -16 -7 -104 -41 -195 -76 -91 -34
-181 -69 -200 -77 -19 -9 -44 -17 -55 -19 -11 -2 -24 -8 -29 -13 -6 -6 -16
-10 -23 -10 -7 0 -32 -9 -56 -19 -23 -11 -93 -39 -154 -62 -62 -24 -111 -44
-110 -46 2 -1 198 63 437 142 239 80 441 145 448 145 8 0 75 -21 150 -46 75
-25 142 -47 147 -49 6 -1 17 -5 25 -8 33 -15 112 -35 104 -28 -20 18 -199 91
-211 86 -8 -2 -12 -1 -9 3 3 5 -14 16 -37 26 -23 10 -64 28 -92 41 -64 29 -77
33 -95 27z"/>
<path d="M2870 2289 c-133 -47 -424 -158 -415 -158 6 -1 53 11 105 25 160 43
364 94 380 94 16 0 115 -31 645 -204 119 -39 191 -48 85 -11 -3 1 -12 5 -20 8
-8 4 -58 23 -110 42 -433 165 -575 217 -593 220 -12 2 -47 -5 -77 -16z"/>
<path d="M755 2038 c-48 -57 -97 -114 -109 -128 -11 -14 -61 -73 -110 -130
-100 -117 -128 -154 -77 -100 52 55 261 278 326 348 l58 62 33 -20 c43 -24 42
-15 0 33 l-34 38 -87 -103z"/>
<path d="M1262 1913 c-185 -219 -165 -205 88 65 l106 112 53 -45 c29 -25 55
-45 57 -45 9 0 -99 125 -110 128 -6 1 -93 -96 -194 -215z"/>
<path d="M1226 1723 c2 -134 2 -133 19 -133 11 0 15 12 15 45 0 44 1 45 33 46
72 1 107 24 107 69 0 50 -21 64 -102 68 l-73 4 1 -99z m132 55 c33 -33 1 -68
-62 -68 -35 0 -36 1 -36 40 l0 40 43 0 c24 0 48 -5 55 -12z"/>
<path d="M2215 1810 c-3 -5 -4 -14 0 -20 8 -13 35 -1 35 16 0 16 -26 19 -35 4z"/>
<path d="M2749 1803 c-3 -56 -4 -190 -1 -200 2 -7 10 -13 18 -13 10 0 14 13
14 45 0 40 3 45 23 46 81 2 117 24 117 71 0 48 -30 68 -105 68 -55 0 -65 -3
-66 -17z m135 -35 c19 -30 -4 -53 -58 -56 l-46 -3 0 41 0 41 46 -3 c31 -2 51
-9 58 -20z"/>
<path d="M1491 1675 c-2 -71 1 -85 14 -85 11 0 15 12 15 51 0 60 13 89 41 89
12 0 19 5 17 13 -6 17 -39 21 -49 5 -6 -10 -9 -10 -9 0 0 6 -6 12 -14 12 -10
0 -14 -20 -15 -85z"/>
<path d="M1675 1735 c-52 -51 -16 -145 55 -145 29 0 70 29 70 50 0 15 -9 12
-37 -9 -26 -21 -50 -18 -70 7 -22 27 -15 32 47 32 56 0 60 2 60 23 0 61 -80
88 -125 42z m93 -27 c2 -12 -7 -15 -43 -14 -46 0 -50 3 -37 22 17 27 74 21 80
-8z"/>
<path d="M1890 1675 c0 -69 3 -85 15 -85 11 0 15 12 15 50 0 66 -1 63 17 82
12 13 20 15 34 7 16 -8 19 -21 19 -74 0 -51 3 -65 15 -65 12 0 15 13 15 59 0
69 18 98 51 81 16 -9 19 -22 19 -75 0 -51 3 -65 15 -65 22 0 21 132 -1 154
-17 18 -55 21 -70 6 -6 -6 -21 -6 -42 2 -26 10 -37 10 -52 0 -12 -7 -20 -8
-20 -2 0 5 -7 10 -15 10 -12 0 -15 -16 -15 -85z"/>
<path d="M2219 1758 c-1 -1 -2 -38 -3 -81 -1 -75 7 -104 24 -78 12 21 6 154
-7 159 -7 2 -14 2 -14 0z"/>
<path d="M2360 1740 c-11 -11 -20 -26 -21 -32 0 -7 -2 -22 -4 -32 -5 -25 19
-72 40 -80 31 -11 62 -6 89 15 19 15 24 25 17 32 -7 7 -17 5 -31 -8 -12 -11
-28 -20 -37 -21 -19 -3 -43 19 -43 40 0 13 12 16 60 16 54 0 60 2 60 20 0 12
-11 32 -25 45 -30 31 -77 33 -105 5z m85 -20 c21 -23 22 -22 -32 -24 -46 -2
-58 14 -25 33 25 15 37 13 57 -9z"/>
<path d="M2579 1758 c-1 -4 -1 -129 0 -150 1 -10 7 -18 14 -18 9 0 14 19 15
61 2 69 6 79 32 79 10 0 22 5 25 10 10 16 -26 24 -47 11 -12 -7 -17 -8 -13 -2
3 6 -1 11 -9 11 -9 0 -16 -1 -17 -2z"/>
<path d="M3017 1753 c-4 -3 -7 -42 -7 -85 0 -63 3 -78 15 -78 11 0 15 12 15
51 0 60 13 89 40 89 11 0 20 5 20 10 0 17 -29 23 -45 10 -10 -9 -15 -9 -15 -1
0 12 -13 15 -23 4z"/>
<path d="M3205 1748 c-29 -16 -35 -28 -35 -73 0 -46 6 -57 37 -74 56 -29 113
10 113 78 0 63 -61 100 -115 69z m67 -25 c24 -22 23 -75 -2 -98 -17 -16 -24
-16 -44 -5 -27 14 -37 46 -24 81 15 41 41 49 70 22z"/>
<path d="M1512 1443 c1 -5 -3 -18 -10 -31 -7 -12 -9 -22 -5 -21 19 3 33 -2 33
-12 0 -6 -9 -9 -20 -6 -20 5 -32 -5 -43 -35 -4 -12 -1 -18 8 -18 8 0 15 9 15
20 0 15 7 20 25 20 18 0 25 -5 25 -20 0 -15 7 -20 24 -20 l25 0 -27 65 c-15
36 -33 65 -39 65 -7 0 -12 -3 -11 -7z"/>
<path d="M1790 1443 c-43 -15 -54 -82 -18 -107 31 -22 55 -22 34 0 -25 25 -24
81 2 102 16 12 9 15 -18 5z"/>
<path d="M1840 1429 c13 -23 33 -25 28 -2 -2 9 -11 17 -20 19 -15 2 -16 -1 -8
-17z"/>
<path d="M2058 1385 c4 -62 5 -65 28 -65 17 0 23 4 18 12 -15 24 -11 48 7 48
9 0 20 -6 22 -12 3 -7 6 0 6 16 1 25 -1 27 -15 15 -13 -10 -17 -10 -25 2 -4 8
-6 22 -3 32 4 13 0 17 -18 17 -22 0 -23 -3 -20 -65z"/>
<path d="M2111 1446 c2 -2 14 -9 27 -15 18 -10 22 -9 22 4 0 10 -9 15 -27 15
-14 0 -24 -2 -22 -4z"/>
<path d="M2338 1385 c3 -49 7 -65 18 -65 9 0 12 5 8 12 -11 18 -14 57 -5 63 5
2 22 -13 40 -35 18 -22 36 -40 41 -40 6 0 10 19 10 43 0 30 -3 38 -10 27 -8
-12 -15 -8 -40 23 -18 20 -39 37 -48 37 -15 0 -17 -9 -14 -65z"/>
<path d="M2429 1437 c6 -8 8 -17 4 -20 -3 -4 -2 -7 4 -7 6 0 13 9 16 20 4 15
0 20 -15 20 -16 0 -18 -3 -9 -13z"/>
<path d="M2652 1434 c-33 -23 -28 -82 9 -103 27 -15 79 -9 79 10 0 6 -7 6 -20
-1 -40 -21 -70 23 -50 74 11 29 31 33 54 11 19 -20 25 -19 19 3 -6 24 -61 28
-91 6z"/>
<path d="M2910 1443 c0 -5 9 -23 20 -41 11 -18 20 -44 20 -57 0 -15 6 -25 14
-25 19 0 26 67 9 82 -7 6 -13 19 -13 29 0 14 -7 19 -25 19 -14 0 -25 -3 -25
-7z"/>
<path d="M2992 1421 c-2 -21 0 -23 10 -11 7 8 20 21 27 28 13 10 11 12 -10 10
-19 -2 -25 -8 -27 -27z"/>
<path d="M1839 1386 c-5 -7 -3 -59 2 -62 10 -6 40 26 34 36 -3 5 1 10 7 12 7
3 1 7 -14 10 -16 3 -28 5 -29 4z"/>
<path d="M2144 1335 c-17 -13 -17 -14 -2 -15 9 0 20 5 23 11 11 17 0 20 -21 4z"/>
</g>
</svg>
